<svg width="1250" height="565" viewBox="0 0 1250 565" fill="none" xmlns="http://www.w3.org/2000/svg">
<g clip-path="url(#clip0_524_47)">
<path d="M570.129 306.54C601.433 281.25 646.934 257.819 686.717 276.643C712.827 291.419 719.647 328.474 706.797 354.323C693.733 380.93 668.247 399.852 640.64 409.363C574.78 433.584 484.632 405.365 466.507 343.579C457.962 314.455 468.413 287.207 473.146 277.318C498.37 224.549 560.155 217.293 564.575 216.832C572.989 217.984 583.67 218.543 595.829 217.046C601.827 216.305 607.25 215.17 612.065 213.887C612.328 213.854 614.907 213.623 616.682 215.598C618.079 217.161 618.046 219.02 618.03 219.432C615.729 228.778 601.794 223.595 594.942 223.15C573.005 219.267 549.688 219.333 530.396 206.137C508.18 191.706 497.367 160.394 509.478 135.943C528.128 96.4362 610.865 92.2897 637.255 124.441C649.169 140.501 647.591 164.952 633.755 179.366C616.616 197.07 590.867 194.405 568.913 199.275C530.166 210.217 485.487 213.459 455.021 242.336C437.701 258.033 431.227 283.455 438.737 305.57C455.218 353.188 526.074 350.045 553.451 314.043C573.268 291.666 585.756 263.496 606.839 241.579C638.208 206.087 701.949 189.567 736.161 229.814C781.498 280.608 737.542 345.701 677.991 354.192C656.744 358.289 635.612 349.453 619.18 336.174C602.156 323.834 621.875 297.425 638.504 310.21C647.164 319.885 650.779 333.295 663.103 340.041C688.475 357.104 721.734 340.239 737.492 317.499C761.615 287.091 734.6 246.071 700.569 240.098C667.704 233.911 636.319 250.464 612.048 272.217C586.414 294.15 564.641 323.998 532.68 337.82C499.536 351.362 448.612 344.78 435.631 306.623C421.877 269.88 449.138 233.632 482.775 220.468C522.18 200.526 622.023 202.418 616.189 140.682C615.055 128.769 603.914 117.794 594.876 113.417C580.038 106.226 561.026 109.797 549.326 120.278C531.366 136.404 534.389 165.528 543.805 183.035C555.8 205.347 583.029 217.819 612.065 213.87L612.41 224.417C498.813 204.623 467.575 376.224 597.851 392.3C623.091 396.035 650.96 393.83 672.65 379.054C706.994 359.589 721.471 304.5 684.547 280.444C660.244 267.001 630.058 274.438 606.346 285.989C594.038 292.094 582.601 299.959 572.266 309.025C570.672 310.473 568.453 307.89 570.146 306.524L570.129 306.54Z" fill="#E5A667"/>
<path d="M695.015 161.989C695.015 152.676 694.39 145.88 693.174 141.619C691.942 137.373 690.085 134.362 687.62 132.569C685.155 130.792 681.047 129.475 675.296 128.653V124.539H725.825V375.055C725.825 384.384 726.302 391.164 727.271 395.425C728.224 399.687 729.999 402.698 732.612 404.475C735.208 406.269 739.382 407.568 745.133 408.391V412.505H675.296V408.391C681.047 407.568 685.155 406.269 687.62 404.475C690.085 402.698 691.925 399.687 693.174 395.425C694.407 391.18 695.015 384.384 695.015 375.055V161.989ZM826.473 124.556L837.154 224.515H828.938C827.837 218.213 826.884 212.734 826.062 208.061C822.217 183.116 818.52 165.691 814.97 155.819C811.405 145.946 807.379 139.644 802.843 136.896C798.325 134.165 791.686 132.783 782.927 132.783H725.825V124.556H826.473ZM769.782 260.714C775.533 260.714 779.575 259.957 781.909 258.444C784.226 256.946 785.869 253.919 786.838 249.394C787.791 244.869 788.005 237.53 787.463 227.378C787.183 223.824 787.052 220.122 787.052 216.271H795.268L805.128 317.054H796.501C795.679 310.752 794.709 305.272 793.625 300.599C792.245 289.904 790.749 282.566 789.106 278.584C787.463 274.618 785.129 272.002 782.122 270.768C779.099 269.534 774.448 268.925 768.155 268.925H725.842V260.698H769.798L769.782 260.714Z" fill="#14360A"/>
<path d="M856.873 166.516C856.873 157.466 856.314 150.884 855.23 146.771C854.129 142.657 852.288 139.646 849.676 137.721C847.063 135.812 842.478 134.43 835.905 133.607V129.494L863.429 127.848C867.537 127.585 871.235 126.894 874.521 125.791C877.808 124.705 880.815 122.649 883.559 119.621H887.667V375.073C887.667 384.403 888.144 391.182 889.113 395.444C890.066 399.705 891.989 402.716 894.864 404.493C897.74 406.287 902.193 407.587 908.207 408.409V412.523H835.905V408.409C842.478 407.587 847.063 406.287 849.676 404.493C852.272 402.716 854.129 399.705 855.23 395.444C856.314 391.198 856.873 384.403 856.873 375.073V166.516Z" fill="#14360A"/>
<path d="M927.942 248.786C927.942 239.736 927.384 233.154 926.299 229.04C925.198 224.927 923.358 221.916 920.745 219.991C918.132 218.082 913.548 216.7 906.975 215.877V211.763L934.499 210.118C938.87 209.855 942.715 209.164 946.001 208.061C949.288 206.975 952.163 204.918 954.628 201.891H958.736V375.072C958.736 384.401 959.279 391.181 960.38 395.442C961.464 399.704 963.387 402.715 966.131 404.492C968.859 406.286 973.378 407.585 979.688 408.408V412.522H906.975V408.408C913.548 407.585 918.132 406.286 920.745 404.492C923.341 402.715 925.198 399.704 926.299 395.442C927.384 391.197 927.942 384.401 927.942 375.072V248.786ZM941.088 171.039C934.778 171.039 929.388 169.048 924.853 165.083C920.334 161.117 918.083 155.835 918.083 149.254C918.083 142.672 920.268 137.802 924.656 133.82C929.027 129.854 934.515 127.863 941.088 127.863C947.661 127.863 952.722 129.854 957.11 133.82C961.481 137.802 963.682 143.067 963.682 149.649C963.682 156.23 961.481 161.101 957.11 165.083C952.722 169.065 947.382 171.039 941.088 171.039Z" fill="#14360A"/>
<path d="M999.817 248.787C999.817 239.737 999.258 233.156 998.174 229.042C997.073 224.929 995.233 221.917 992.62 219.992C990.007 218.084 985.423 216.701 978.85 215.879V211.765L1006.37 210.12C1010.48 209.857 1014.18 209.165 1017.47 208.063C1020.75 206.977 1023.76 204.92 1026.5 201.893H1030.61V375.074C1030.61 384.403 1031.09 391.182 1032.06 395.444C1033.01 399.706 1034.93 402.717 1037.81 404.494C1040.68 406.287 1045.14 407.587 1051.15 408.41V412.523H978.85V408.41C985.423 407.587 990.007 406.287 992.62 404.494C995.216 402.717 997.073 399.706 998.174 395.444C999.258 391.199 999.817 384.403 999.817 375.074V248.787ZM1094.71 412.507V408.393C1100.73 407.571 1105.2 406.271 1108.06 404.477C1110.93 402.7 1112.84 399.689 1113.81 395.427C1114.76 391.182 1115.25 384.387 1115.25 375.057V253.707C1115.25 240.28 1112.79 230.26 1107.86 223.678C1102.93 217.096 1095.39 213.806 1085.27 213.806C1077.31 213.806 1069.18 216.01 1060.81 220.387C1052.45 224.78 1043.76 231.082 1034.72 239.31C1033.34 240.412 1031.98 241.778 1030.61 243.423V233.551L1033.08 231.082C1042.38 222.033 1052.04 214.826 1062.03 209.495C1072.02 204.147 1082.77 201.465 1094.27 201.465C1110.97 201.465 1123.78 206.204 1132.69 215.648C1141.58 225.11 1146.03 239.853 1146.03 259.877V375.057C1146.03 384.387 1146.57 391.166 1147.68 395.427C1148.76 399.689 1150.68 402.7 1153.43 404.477C1156.15 406.271 1160.67 407.571 1166.98 408.393V412.507H1094.68H1094.71Z" fill="#14360A"/>
<path d="M1149.76 206.829C1162.09 206.566 1171.47 204.558 1177.89 200.873C1184.32 197.17 1189.25 191.346 1192.68 183.398C1196.1 175.451 1198.91 163.11 1201.1 146.376V145.965H1205.62V206.846H1245.05V215.073C1232.99 215.073 1224.32 215.698 1218.96 216.916C1213.6 218.133 1210.05 220.075 1208.28 222.675C1206.49 225.291 1205.62 229.602 1205.62 235.64V363.572C1205.62 376.472 1206.44 385.44 1208.08 390.524C1209.72 395.609 1213.01 398.126 1217.94 398.126C1223.41 398.126 1228.06 392.927 1231.91 382.495C1235.74 372.079 1239.3 356.316 1242.59 335.189L1249.98 337.245L1249.16 342.182C1245.88 361.384 1242.52 376.193 1239.1 386.608C1235.67 397.04 1231.37 404.856 1226.16 410.055C1220.95 415.255 1214.09 417.871 1205.62 417.871C1198.48 417.871 1192.67 416.226 1188.16 412.935C1183.66 409.644 1180.29 404.296 1178.11 396.892C1175.91 389.488 1174.82 379.763 1174.82 367.686V235.64C1174.82 229.618 1174.35 225.225 1173.38 222.477C1172.41 219.746 1170.22 217.821 1166.8 216.718C1163.37 215.632 1157.7 215.073 1149.75 215.073V206.846L1149.76 206.829Z" fill="#14360A"/>
<mask id="mask0_524_47" style="mask-type:luminance" maskUnits="userSpaceOnUse" x="733" y="259" width="24" height="12">
<path d="M755.585 265.701C755.289 263.973 754.895 262.163 754.418 260.32L752.824 259.086H735.209L733.96 261.801C736.063 264.269 737.937 266.951 739.531 269.765L740.96 270.604H754.418L756.045 268.745C755.914 267.724 755.766 266.704 755.585 265.701Z" fill="white"/>
</mask>
<g mask="url(#mask0_524_47)">
<path d="M695.016 161.989C695.016 152.676 694.391 145.88 693.175 141.619C691.943 137.373 690.086 134.362 687.621 132.569C685.156 130.792 681.048 129.475 675.297 128.653V124.539H725.826V375.055C725.826 384.384 726.303 391.164 727.272 395.425C728.225 399.687 730 402.698 732.613 404.475C735.209 406.269 739.383 407.568 745.134 408.391V412.505H675.297V408.391C681.048 407.568 685.156 406.269 687.621 404.475C690.086 402.698 691.926 399.687 693.175 395.425C694.408 391.18 695.016 384.384 695.016 375.055V161.989ZM826.474 124.556L837.155 224.515H828.939C827.838 218.213 826.885 212.734 826.063 208.061C822.218 183.116 818.521 165.691 814.971 155.819C811.406 145.946 807.38 139.644 802.844 136.896C798.326 134.165 791.687 132.783 782.928 132.783H725.826V124.556H826.474ZM769.783 260.714C775.534 260.714 779.576 259.957 781.91 258.444C784.227 256.946 785.87 253.919 786.839 249.394C787.792 244.869 788.006 237.53 787.464 227.378C787.184 223.824 787.053 220.122 787.053 216.271H795.269L805.129 317.054H796.502C795.68 310.752 794.71 305.272 793.626 300.599C792.246 289.904 790.75 282.566 789.107 278.584C787.464 274.618 785.13 272.002 782.123 270.768C779.1 269.534 774.449 268.925 768.156 268.925H725.843V260.698H769.799L769.783 260.714Z" fill="#14360A"/>
<path d="M570.13 306.54C601.434 281.25 646.935 257.819 686.718 276.643C712.828 291.419 719.648 328.474 706.798 354.324C693.734 380.93 668.248 399.852 640.641 409.363C574.781 433.584 484.633 405.365 466.508 343.579C457.963 314.455 468.414 287.207 473.147 277.318C498.37 224.549 560.156 217.293 564.576 216.832C572.99 217.984 583.671 218.543 595.83 217.046C601.828 216.305 607.251 215.17 612.066 213.887C612.329 213.854 614.908 213.623 616.683 215.598C618.08 217.161 618.047 219.02 618.031 219.432C615.73 228.778 601.795 223.595 594.943 223.15C573.006 219.267 549.689 219.333 530.397 206.137C508.181 191.706 497.368 160.394 509.479 135.943C528.129 96.4362 610.866 92.2897 637.256 124.441C649.17 140.501 647.592 164.952 633.756 179.366C616.617 197.07 590.868 194.405 568.914 199.275C530.167 210.217 485.488 213.459 455.022 242.336C437.702 258.033 431.228 283.455 438.738 305.57C455.219 353.188 526.075 350.045 553.452 314.044C573.269 291.666 585.757 263.496 606.84 241.579C638.209 206.087 701.95 189.567 736.162 229.814C781.499 280.608 737.543 345.701 677.992 354.192C656.745 358.289 635.613 349.453 619.181 336.174C602.157 323.834 621.876 297.425 638.505 310.21C647.165 319.885 650.78 333.295 663.104 340.041C688.476 357.104 721.735 340.239 737.493 317.499C761.616 287.091 734.601 246.071 700.57 240.098C667.705 233.911 636.32 250.464 612.049 272.217C586.415 294.15 564.642 323.998 532.681 337.82C499.537 351.362 448.613 344.78 435.632 306.623C421.878 269.88 449.139 233.632 482.776 220.468C522.181 200.526 622.024 202.418 616.19 140.682C615.056 128.769 603.915 117.794 594.877 113.417C580.039 106.226 561.027 109.797 549.327 120.278C531.367 136.404 534.39 165.528 543.806 183.035C555.801 205.347 583.03 217.819 612.066 213.87L612.411 224.417C498.814 204.623 467.576 376.224 597.852 392.3C623.092 396.035 650.961 393.83 672.651 379.054C706.995 359.589 721.472 304.5 684.548 280.444C660.245 267.001 630.059 274.438 606.347 285.989C594.039 292.094 582.602 299.959 572.267 309.025C570.673 310.473 568.454 307.89 570.147 306.524L570.13 306.54Z" fill="#E5A667"/>
</g>
<path d="M711.07 343.004C707.586 344.945 703.938 346.689 700.192 348.203C693.175 351.033 685.731 353.074 678.041 354.176C656.81 358.273 635.662 349.454 619.23 336.175C602.206 323.834 621.941 297.425 638.554 310.21C647.214 319.869 650.829 333.296 663.153 340.042C675.149 348.121 688.919 348.598 701.769 344.451C705.154 343.366 708.49 341.934 711.711 340.239C722.047 334.826 731.199 326.632 737.542 317.499C755.125 295.319 745.528 267.495 725.826 251.748V219.926C729.523 222.739 733.007 226.014 736.228 229.798C772.576 270.523 751.526 320.428 711.07 343.004Z" fill="#E5A667"/>
</g>
<path d="M114.058 36.1671L129.034 77.9242H240.228L262.114 23.7881L222.562 33.9311L187.192 0L152.493 42.6596L114.058 36.1671Z" fill="#E5A667"/>
<path d="M130.943 90.5326C145.086 90.6808 159.228 90.829 173.385 90.9906C174.299 98.7359 175.2 106.468 176.114 114.213C174.931 114.159 173.748 114.105 172.565 114.051C171.866 111.317 169.136 102.144 160.411 96.9309C158.906 96.0284 151.875 91.8257 147.183 93.7115C135.567 98.4126 134.895 142.015 152.009 177.064C154.268 181.684 179.408 231.618 213.501 229.018C215.316 228.883 229.392 227.604 237.175 216.828C248.038 201.795 242.499 177.603 219.82 153.815C219.82 153.815 233.747 150.191 248.966 140.116C248.966 140.116 230.131 119.695 230.131 89.7109H231.556C236.409 110.536 245.027 124.8 252.434 130.7C256.225 133.718 260.164 136.371 260.85 140.412C261.374 143.51 257.623 148.683 237.471 157.694C254.37 180.405 257.153 202.388 245.86 217.515C236.611 229.894 220.653 231.51 217.225 231.86C181.37 235.484 148.473 197 135.258 167.474C131.911 159.998 122.93 139.254 125.915 112.435C126.936 103.248 129.101 95.759 130.943 90.5326Z" fill="#14360A"/>
<path d="M195.271 109.135L213.554 104.677C217.493 104.246 220.491 107.384 220.33 110.199C220.182 112.853 217.224 115.493 213.554 115.049C207.464 113.082 201.361 111.102 195.271 109.135Z" fill="#14360A"/>
<path d="M155.129 151.701C158.337 151.701 160.937 149.095 160.937 145.882C160.937 142.668 158.337 140.062 155.129 140.062C151.921 140.062 149.321 142.668 149.321 145.882C149.321 149.095 151.921 151.701 155.129 151.701Z" fill="#E5A667"/>
<path d="M83.9027 220.102C90.0868 212.155 93.7435 202.173 93.7435 191.343C93.7435 165.4 72.7578 144.387 46.8785 144.387C20.9992 144.387 0 165.4 0 191.343C0 217.287 20.9992 238.286 46.865 238.286C56.9882 238.286 66.3317 235.094 73.9946 229.612L132.26 292.301L145.529 278.993L83.9027 220.102ZM62.5943 227.322C58.0637 231.619 52.6593 234.111 46.865 234.111C30.7997 234.111 17.7592 214.956 17.7592 191.343C17.7592 167.73 30.7997 148.549 46.865 148.549C62.9304 148.549 75.9708 167.703 75.9708 191.343C75.9708 200.665 73.9408 209.326 70.4723 216.344C68.3482 220.695 65.6729 224.426 62.5943 227.322Z" fill="#E5A667"/>
<path d="M316.923 208.277H294.62C289.619 217.087 285.532 227.001 282.574 237.709H311.035C312.46 227.216 314.436 217.316 316.923 208.277Z" fill="#14360A"/>
<path d="M251.695 237.709H274.792C277.521 227.243 281.285 217.343 286.044 208.277H268.823C261.711 217.087 255.903 227.001 251.695 237.709Z" fill="#14360A"/>
<path d="M299.3 200.727H319.183C319.6 199.434 320.03 198.154 320.474 196.902C324.722 184.981 329.414 176.67 334.146 170.918C320.716 176.373 308.751 186.813 299.3 200.714V200.727Z" fill="#14360A"/>
<path d="M308.347 278.631C308.347 267.168 308.952 255.947 310.108 245.238H280.72C278.408 255.785 277.171 266.992 277.171 278.631H308.36H308.347Z" fill="#14360A"/>
<path d="M253.63 278.629H269.642C269.642 267.179 270.812 255.959 273.03 245.25H249.046C246.72 252.726 245.147 260.525 244.448 268.594L253.63 278.642V278.629Z" fill="#14360A"/>
<path d="M355.749 200.732H327.101C334.347 179.718 344.51 166.652 355.749 166.652V200.732Z" fill="#14360A"/>
<path d="M355.75 208.277V237.723H318.604C320.11 227.001 322.194 217.1 324.721 208.277H355.75Z" fill="#14360A"/>
<path d="M317.664 245.238H355.736V278.617H315.849C315.849 266.992 316.494 255.785 317.65 245.238H317.664Z" fill="#14360A"/>
<path d="M290.345 200.735C291.528 198.822 292.738 196.936 294.015 195.118C299.393 187.453 305.402 180.92 311.869 175.613C298.089 181.513 285.734 190.107 275.463 200.735H290.345Z" fill="#14360A"/>
<path d="M100.251 172.272C108.707 170.022 117.177 167.773 125.633 165.523C130.473 179.169 138.727 195.548 152.937 210.608C163.948 222.286 182.205 241.643 209.67 242.882C224.432 243.542 236.37 238.733 243.414 235.096C240.927 240.255 238.548 246.519 237.028 253.833C236.625 255.759 236.316 257.632 236.074 259.437C229.298 265.835 222.536 272.233 215.76 278.631H157.858L96.7559 219.862C96.7559 219.862 110.294 195.184 100.278 172.258L100.251 172.272Z" fill="#14360A"/>
<path d="M105.787 278.626H98.084C98.084 275.73 98.0034 272.834 97.8555 269.965L105.787 278.626Z" fill="#14360A"/>
<path d="M75.2585 245.242C74.1023 244.056 72.9327 242.871 71.7765 241.699C70.1902 242.629 66.762 244.528 63.8178 245.242C63.4817 245.323 62.3524 245.579 60.9408 245.861C59.6099 246.117 58.5075 246.293 57.7412 246.414C58.8167 256.759 59.3814 267.575 59.3814 278.634H90.5844C90.5844 272.613 90.2483 266.7 89.5896 260.934L75.2585 245.255V245.242Z" fill="#14360A"/>
<path d="M97.8604 269.973C98.0082 272.842 98.0889 275.738 98.0889 278.634H105.792L97.8604 269.973Z" fill="#14360A"/>
<path d="M28.112 245.228C22.8555 243.935 17.4377 241.982 11.9795 239.086V278.621H51.8672C51.8672 267.71 51.3026 257.163 50.2674 247.195C43.7068 247.559 36.138 247.195 28.112 245.228Z" fill="#14360A"/>
<path d="M253.684 528.833L238.708 487.062H127.514L105.614 541.212L145.179 531.069L180.536 565L215.235 522.341L253.684 528.833Z" fill="#E5A667"/>
<path d="M236.785 474.468C222.642 474.32 208.499 474.172 194.343 474.01C193.429 466.265 192.528 458.533 191.614 450.788C192.797 450.842 193.98 450.896 195.163 450.949C195.862 453.684 198.591 462.857 207.316 468.07C208.822 468.972 215.853 473.175 220.545 471.289C232.16 466.588 232.833 422.986 215.719 387.937C213.46 383.316 188.32 333.383 154.227 335.983C152.412 336.117 138.336 337.397 130.552 348.173C119.69 363.206 125.229 387.398 147.908 411.186C147.908 411.186 133.98 414.809 118.762 424.885C118.762 424.885 137.597 445.306 137.597 475.29H136.172C131.319 454.465 122.701 440.2 115.294 434.3C111.502 431.283 107.563 428.63 106.878 424.589C106.353 421.49 110.104 416.318 130.257 407.307C113.358 384.596 110.575 362.613 121.868 347.486C131.117 335.107 147.075 333.491 150.503 333.14C186.357 329.517 219.254 368.001 232.47 397.527C235.817 405.003 244.798 425.747 241.813 452.566C240.791 461.752 238.627 469.242 236.785 474.468Z" fill="#14360A"/>
<path d="M172.456 455.853L154.173 460.312C150.233 460.743 147.236 457.604 147.397 454.789C147.545 452.136 150.502 449.495 154.173 449.94C160.263 451.907 166.366 453.887 172.456 455.853Z" fill="#14360A"/>
<path d="M212.6 424.927C215.807 424.927 218.407 422.322 218.407 419.108C218.407 415.894 215.807 413.289 212.6 413.289C209.392 413.289 206.792 415.894 206.792 419.108C206.792 422.322 209.392 424.927 212.6 424.927Z" fill="#E5A667"/>
<path d="M283.837 344.887C277.653 352.834 273.996 362.816 273.996 373.646C273.996 399.589 294.982 420.602 320.861 420.602C346.741 420.602 367.726 399.575 367.726 373.646C367.726 347.716 346.727 326.702 320.861 326.702C310.738 326.702 301.395 329.895 293.732 335.377L235.466 272.688L222.197 285.996L283.824 344.887H283.837ZM305.145 337.667C309.676 333.37 315.08 330.878 320.875 330.878C336.94 330.878 349.98 350.033 349.98 373.646C349.98 397.259 336.94 416.44 320.875 416.44C304.809 416.44 291.769 397.285 291.769 373.646C291.769 364.324 293.799 355.663 297.267 348.645C299.391 344.294 302.067 340.563 305.145 337.667Z" fill="#E5A667"/>
<path d="M50.8164 356.725H73.1197C78.1207 347.916 82.2077 338.002 85.1653 327.293H56.7048C55.2797 337.786 53.3035 347.687 50.8164 356.725Z" fill="#14360A"/>
<path d="M116.044 327.293H92.9478C90.2187 337.759 86.4544 347.66 81.6953 356.725H98.9168C106.029 347.916 111.836 338.002 116.044 327.293Z" fill="#14360A"/>
<path d="M68.4401 364.258H48.5567C48.1399 365.551 47.7097 366.831 47.2661 368.083C43.0178 380.004 38.326 388.315 33.5938 394.067C47.0241 388.612 58.9891 378.172 68.4401 364.271V364.258Z" fill="#14360A"/>
<path d="M59.39 286.375C59.39 297.838 58.7851 309.059 57.6289 319.767H87.017C89.3294 309.22 90.5662 298.013 90.5662 286.375H59.3766H59.39Z" fill="#14360A"/>
<path d="M114.107 286.373H98.0958C98.0958 297.822 96.9262 309.043 94.708 319.752H118.692C121.018 312.276 122.59 304.477 123.29 296.408L114.107 286.359V286.373Z" fill="#14360A"/>
<path d="M11.9893 364.258H40.638C33.3918 385.271 23.2283 398.337 11.9893 398.337V364.258Z" fill="#14360A"/>
<path d="M11.9893 356.731V327.285H49.1345C47.6287 338.007 45.545 347.908 43.0175 356.731H11.9893Z" fill="#14360A"/>
<path d="M50.0621 319.754H11.9893V286.375H51.877C51.877 298 51.2317 309.207 50.0755 319.754H50.0621Z" fill="#14360A"/>
<path d="M77.3809 364.258C76.1979 366.171 74.9879 368.056 73.7108 369.875C68.3333 377.539 62.3239 384.072 55.8574 389.379C69.6373 383.48 81.9921 374.886 92.2632 364.258H77.3809Z" fill="#14360A"/>
<path d="M267.491 392.734C259.035 394.984 250.565 397.233 242.109 399.483C237.269 385.838 229.015 369.458 214.805 354.399C203.794 342.72 185.538 323.364 158.072 322.124C143.311 321.464 131.373 326.273 124.328 329.91C126.815 324.751 129.195 318.488 130.714 311.173C131.117 309.247 131.426 307.375 131.668 305.57C138.444 299.172 145.206 292.773 151.982 286.375H209.884L270.986 345.145C270.986 345.145 257.449 369.822 267.464 392.748L267.491 392.734Z" fill="#14360A"/>
<path d="M261.95 286.375H269.653C269.653 289.271 269.734 292.167 269.882 295.036L261.95 286.375Z" fill="#14360A"/>
<path d="M292.482 319.752C293.638 320.937 294.808 322.122 295.964 323.294C297.55 322.365 300.979 320.466 303.923 319.752C304.259 319.671 305.388 319.415 306.8 319.132C308.131 318.876 309.233 318.701 309.999 318.58C308.924 308.235 308.359 297.418 308.359 286.359H277.156C277.156 292.38 277.492 298.294 278.151 304.059L292.482 319.738V319.752Z" fill="#14360A"/>
<path d="M269.882 295.036C269.734 292.167 269.653 289.271 269.653 286.375H261.95L269.882 295.036Z" fill="#14360A"/>
<path d="M339.615 319.767C344.871 321.06 350.289 323.014 355.747 325.91V286.375H315.859C315.859 297.286 316.424 307.833 317.459 317.801C324.02 317.437 331.589 317.801 339.615 319.767Z" fill="#14360A"/>
<defs>
<clipPath id="clip0_524_47">
<rect width="818" height="315" fill="white" transform="translate(432 103)"/>
</clipPath>
</defs>
</svg>
